HIERARCHY
ROOT Hips
{
  OFFSET 0 89.5177 0.535
  CHANNELS 6 Xposition Yposition Zposition Zrotation Xrotation Yrotation
  JOINT Spine
  {
    OFFSET 12.0259 -0.162855 1.69034e-005
    CHANNELS 3 Zrotation Xrotation Yrotation
    JOINT Spine1
    {
      OFFSET 15.3169 -0.0121922 0
      CHANNELS 3 Zrotation Xrotation Yrotation
      JOINT Spine2
      {
        OFFSET 15.3176 -0.0121908 0
        CHANNELS 3 Zrotation Xrotation Yrotation
        JOINT Neck
        {
          OFFSET 19.9142 1.56338 0
          CHANNELS 3 Zrotation Xrotation Yrotation
          JOINT Head
          {
            OFFSET 6.92651 0 0
            CHANNELS 3 Zrotation Xrotation Yrotation
            End Site
            {
              OFFSET 20.7666 0 0
            }
          }
          JOINT LeftShoulder
          {
            OFFSET -6.20654 0.708824 7.28219
            CHANNELS 3 Zrotation Xrotation Yrotation
            JOINT LeftArm
            {
              OFFSET 14.108 0 -1.52588e-005
              CHANNELS 3 Zrotation Xrotation Yrotation
              JOINT LeftForeArm
              {
                OFFSET 28.5802 0 0
                CHANNELS 3 Zrotation Xrotation Yrotation
                JOINT LeftHand
                {
                  OFFSET 27.092 0 0
                  CHANNELS 3 Zrotation Xrotation Yrotation
                  End Site
                  {
                    OFFSET 9.55928 -0.186424 0.145352
                  }
                }
              }
            }
          }
          JOINT RightShoulder
          {
            OFFSET -6.20654 0.708866 -7.28218
            CHANNELS 3 Zrotation Xrotation Yrotation
            JOINT RightArm
            {
              OFFSET 14.108 0 1.52588e-005
              CHANNELS 3 Zrotation Xrotation Yrotation
              JOINT RightForeArm
              {
                OFFSET 28.5802 0 0
                CHANNELS 3 Zrotation Xrotation Yrotation
                JOINT RightHand
                {
                  OFFSET 27.092 0 0
                  CHANNELS 3 Zrotation Xrotation Yrotation
                  End Site
                  {
                    OFFSET 9.55929 -0.186417 -0.145354
                  }
                }
              }
            }
          }
        }
      }
    }
  }
  JOINT LeftUpLeg
  {
    OFFSET 0.005 -0.535 8.837
    CHANNELS 3 Zrotation Xrotation Yrotation
    JOINT LeftLeg
    {
      OFFSET 39.9035 0 0
      CHANNELS 3 Zrotation Xrotation Yrotation
      JOINT LeftFoot
      {
        OFFSET 39.6689 0 0
        CHANNELS 3 Zrotation Xrotation Yrotation
        JOINT LeftToe
        {
          OFFSET 10.1624 13.6296 0
          CHANNELS 3 Zrotation Xrotation Yrotation
          End Site
          {
            OFFSET 8.38147 0 0
          }
        }
      }
    }
  }
  JOINT RightUpLeg
  {
    OFFSET 0.005 -0.535 -8.837
    CHANNELS 3 Zrotation Xrotation Yrotation
    JOINT RightLeg
    {
      OFFSET 39.9035 0 0
      CHANNELS 3 Zrotation Xrotation Yrotation
      JOINT RightFoot
      {
        OFFSET 39.6689 0 0
        CHANNELS 3 Zrotation Xrotation Yrotation
        JOINT RightToe
        {
          OFFSET 10.1624 13.6296 0
          CHANNELS 3 Zrotation Xrotation Yrotation
          End Site
          {
            OFFSET 8.38147 0 0
          }
        }
      }
    }
  }
}
MOTION
Frames:	16
Frame Time:	0.0333333
575.743 79.3621 -116.658 104.745 38.6262 -8.06797 0.0745971 1.67891 -1.27491 0.186684 3.35621 -2.55348 0.186684 3.35621 -2.55349 -8.30748e-012 -9.0191e-006 -5.27751e-005 -5.24619 13.7572 -5.80621 -178.829 -4.1831 -74.3422 -1.8356 -10.8015 52.2852 -127.075 -3.18055e-015 -0 -63.3036 -50.1119 -55.1304 -178.637 5.55981 76.2064 -21.8667 15.0671 -53.815 -113.906 -3.18055e-015 3.18055e-015 -51.434 58.6555 45.8994 -38.955 6.00509 -155.93 -64.3568 6.36111e-015 9.54166e-015 17.2874 -5.38447 -1.08503 90 2.78299e-015 -0 -44.9139 -13.917 172.217 -58.6491 6.36111e-015 3.18056e-015 26.4248 -5.56975 -1.46529 90 -1.98785e-016 6.36111e-015 
576.67 79.2968 -114.511 105.576 39.2921 -9.15405 0.250614 1.56437 -1.20834 0.534485 3.12357 -2.4247 0.534485 3.12357 -2.42471 -8.30589e-012 -9.0191e-006 -5.27751e-005 -5.4854 13.179 -4.86989 -178.863 -3.91258 -73.7763 -3.59143 -6.90305 53.9725 -124.98 -6.36111e-015 6.36111e-015 -62.8334 -49.6918 -54.9449 -178.529 5.67249 75.438 -19.1926 13.3721 -55.3074 -108.613 -2.38542e-015 6.36111e-015 -50.0411 57.635 45.0445 -38.622 4.09239 -154.917 -54.3066 6.36111e-015 -7.95139e-016 17.6419 -4.38225 -0.961646 90 -1.59028e-015 3.18055e-015 -45.1223 -13.8689 170.453 -58.5883 -3.18056e-015 -7.95139e-015 26.7602 -5.83118 -0.177914 90 -6.21202e-018 3.18055e-015 
577.933 79.7174 -112.24 107.666 39.9362 -10.6141 0.324913 1.35581 -1.38254 0.682749 2.70384 -2.77375 0.682749 2.70384 -2.77376 -8.30271e-012 -9.0191e-006 -5.27751e-005 -6.39232 12.4077 -3.47306 -178.887 -3.81365 -73.72 -4.65304 -3.88515 54.4543 -124.396 0 -0 -61.6451 -48.8758 -52.6848 -178.363 6.15658 75.0813 -17.2557 11.5533 -58.5888 -103.656 1.46604e-015 1.27222e-014 -51.0852 55.1357 46.2603 -38.3615 1.67684 -155.456 -42.794 3.18055e-015 2.26351e-016 13.8474 -1.85838 -5.32113 90 -7.95139e-016 3.18055e-015 -45.9006 -13.8755 168.003 -57.1962 3.18056e-015 4.77083e-015 26.2649 -6.22003 2.03006 90 -1.86361e-017 -0 
579.324 80.076 -109.801 110.566 39.8648 -12.6673 0.325667 1.26348 -1.519 0.684978 2.51833 -3.04609 0.684978 2.51833 -3.0461 -8.31066e-012 -9.0191e-006 -5.27751e-005 -7.4638 11.8609 -2.92069 -178.83 -3.98128 -73.6107 -5.64216 -2.30485 54.1144 -124.735 6.36111e-015 -3.18055e-015 -60.2986 -48.2892 -50.3477 -178.402 5.75404 74.4503 -13.9168 8.87228 -61.2686 -102.996 7.95139e-016 9.54166e-015 -51.0612 53.9566 45.6844 -39.832 0.831844 -155.652 -33.7807 -3.18055e-015 7.95139e-016 8.23197 1.95974 -11.9645 90 7.95139e-016 3.18055e-015 -47.4433 -14.1989 165.613 -55.4992 0 3.18056e-015 25.4376 -6.97502 4.2023 90 0 -3.18055e-015 
580.8 80.1808 -107.024 111.795 38.8998 -13.2465 0.423171 1.47645 -1.60694 0.888048 2.94088 -3.22617 0.888048 2.94088 -3.22618 -8.30907e-012 -9.0191e-006 -5.27751e-005 -7.68233 11.9088 -3.95163 -178.762 -4.1622 -73.4134 -6.52042 -1.57668 53.3996 -125.023 -3.18055e-015 3.18055e-015 -59.4433 -48.16 -48.8854 -178.519 5.17891 74.0204 -10.1768 5.24489 -63.0186 -105.488 6.75868e-015 -1.27222e-014 -51.549 54.5273 45.8731 -41.4607 2.41752 -155.586 -30.3362 0 -4.77083e-015 5.15272 4.11085 -15.6493 90 7.95139e-016 -6.36111e-015 -48.3475 -13.7555 163.29 -54.2675 0 -0 24.5948 -8.05361 6.61006 90 -1.2424e-017 -3.18055e-015 
582.31 79.8774 -103.998 111.32 37.2756 -12.8012 0.553338 1.81071 -1.59894 1.1579 3.60566 -3.21754 1.1579 3.60566 -3.21755 -8.31066e-012 -9.0191e-006 -5.27751e-005 -6.78627 12.8551 -5.38404 -178.687 -4.38111 -73.2979 -6.73667 -1.08141 52.579 -125.111 0 6.36111e-015 -59.5716 -47.9295 -48.8886 -178.493 5.26213 74.0007 -8.37608 1.85151 -64.3464 -107.585 1.59028e-015 -6.36111e-015 -51.7014 55.4856 46.1767 -42.6135 5.20329 -154.724 -32.2226 -9.54166e-015 1.59028e-015 6.31367 4.65574 -19.2605 90 4.96962e-016 -0 -48.77 -12.6374 161.216 -54.1183 -3.18056e-015 1.59028e-015 23.8472 -9.17022 10.0094 90 9.93923e-017 3.18055e-015 
583.885 79.3566 -101.036 111.199 35.8415 -12.6695 0.565493 1.85448 -1.58913 1.18318 3.69294 -3.19884 1.18318 3.69294 -3.19885 -8.30589e-012 -9.0191e-006 -5.27751e-005 -6.1365 14.0136 -6.10555 -178.509 -4.94495 -73.1978 -6.12291 -1.13951 51.5109 -125.033 0 -9.54166e-015 -60.3962 -47.6396 -49.9534 -178.451 5.36778 73.8806 -8.81189 -0.489445 -65.2063 -108.227 0 3.18055e-015 -51.1782 55.4609 45.3448 -45.7324 6.50858 -154.717 -39.1357 0 -5.96354e-016 10.8381 5.84543 -19.212 90 -6.06643e-021 3.18055e-015 -49.332 -11.6091 159.385 -53.7738 -1.59028e-015 -0 22.9273 -9.7465 11.7811 90 1.49089e-016 9.54166e-015 
585.32 78.9049 -98.4342 110.816 35.0533 -12.6791 0.655314 1.71577 -1.59432 1.35906 3.41298 -3.21015 1.35906 3.41298 -3.21016 -8.31066e-012 -9.0191e-006 -5.27751e-005 -6.34737 14.1482 -6.22545 -178.52 -4.89152 -73.1427 -4.56982 -1.75932 50.1926 -124.109 3.18055e-015 -0 -60.9402 -47.6214 -50.774 -178.423 5.22598 73.1857 -9.93028 -1.66155 -65.7158 -107.386 7.95139e-016 -0 -49.7957 55.2893 43.5952 -49.6222 8.88426 -154.472 -45.7623 3.18055e-015 1.39149e-015 14.2111 7.41943 -16.5165 90 -1.21329e-020 6.36111e-015 -49.2456 -11.2586 157.898 -52.9855 -1.59028e-015 -3.18056e-015 21.8088 -9.13356 13.1727 90 1.49089e-016 3.18055e-015 
586.44 78.9616 -95.851 110.633 34.9065 -11.9424 0.711312 1.55293 -1.80347 1.47198 3.08304 -3.62789 1.47198 3.08304 -3.6279 -8.30271e-012 -9.0191e-006 -5.27751e-005 -6.42931 12.9246 -5.93677 -178.777 -4.10361 -73.386 -3.04302 -2.45542 49.0568 -121.685 0 6.36111e-015 -61.1299 -47.6472 -51.6169 -178.392 5.17254 72.707 -10.752 -2.09596 -67.1221 -104.961 0 -6.36111e-015 -49.012 54.5551 42.6847 -50.0163 10.093 -156.238 -48.4095 3.18055e-015 5.1684e-015 16.3312 7.03366 -14.7381 90 6.06643e-021 3.18055e-015 -48.8403 -11.8351 155.442 -50.974 -1.59028e-015 -0 20.2735 -7.69883 14.5755 90 -2.48481e-017 3.18055e-015 
587.253 79.3437 -93.6315 109.711 33.9264 -11.5674 0.737861 1.64097 -1.8133 1.52825 3.25809 -3.64966 1.52825 3.25809 -3.64966 -8.30907e-012 -9.0191e-006 -5.27751e-005 -6.20209 11.5348 -5.73552 -178.96 -3.47807 -73.3347 -2.33736 -3.02737 48.0784 -118.431 0 -0 -60.9423 -47.6992 -52.2202 -178.35 5.1979 72.3568 -11.723 -2.45669 -68.6173 -102.486 0 -9.54166e-015 -46.5035 53.8323 40.1045 -49.0657 10.8477 -156.944 -49.6731 0 -4.77083e-015 18.0443 6.19688 -13.4576 90 6.06643e-021 -0 -47.533 -13.0461 154.831 -48.3267 1.59028e-015 -0 17.726 -5.2573 15.1752 90 0 3.18055e-015 
587.85 80.0295 -91.8332 108.771 32.6558 -11.3406 0.721824 1.76859 -1.75734 1.49866 3.51452 -3.53919 1.49866 3.51452 -3.5392 -8.3043e-012 -9.0191e-006 -5.27751e-005 -6.5657 11.0062 -5.51275 -178.97 -3.41703 -73.2176 -2.1106 -3.32241 47.5417 -115.916 7.95139e-015 9.54166e-015 -60.6995 -47.725 -52.3057 -178.338 5.19268 72.2218 -13.0822 -3.14812 -69.8287 -101.209 -7.95139e-016 6.36111e-015 -43.1005 51.695 35.9785 -47.5555 11.877 -157.282 -49.4229 0 4.77083e-015 18.9587 5.4721 -12.3876 90 -6.06643e-021 -0 -46.3087 -14.9065 155.147 -45.8242 3.97569e-015 -3.18056e-015 15.6098 -2.44782 12.8755 90 0 4.77083e-015 
588.33 81.0103 -90.4143 108.723 31.6391 -11.4515 0.604067 1.75716 -1.73146 1.26189 3.49562 -3.48363 1.26189 3.49562 -3.48364 -8.31066e-012 -9.0191e-006 -5.27751e-005 -7.46744 11.468 -5.20226 -178.95 -3.48851 -73.2325 -1.46756 -3.33877 47.3787 -115.319 0 -6.36111e-015 -59.9562 -48.0653 -51.5771 -178.291 5.30226 72.1035 -15.1853 -3.78879 -70.3589 -101.029 -2.38542e-015 6.36111e-015 -40.9347 50.7232 33.5184 -46.0162 12.9349 -158.038 -47.4918 0 2.38542e-015 18.852 4.78131 -11.476 90 0 3.18055e-015 -44.9926 -16.7281 155.897 -42.2048 -7.95139e-016 -0 13.5346 -2.11388 12.2614 90 -7.95139e-016 1.59028e-015 
588.691 82.0799 -89.3137 108.756 30.7811 -11.8475 0.462736 1.70472 -1.66565 0.975517 3.39567 -3.34708 0.975517 3.39567 -3.34708 -8.30271e-012 -9.0191e-006 -5.27751e-005 -8.02562 11.961 -4.70421 -178.973 -3.48138 -73.5518 -0.736387 -3.05065 47.5716 -115.808 -3.18055e-015 6.36111e-015 -59.7188 -48.2811 -51.2384 -178.257 5.37786 72.0116 -17.2578 -4.28712 -70.3351 -101.229 -1.59028e-015 -0 -39.7298 51.2306 32.493 -44.3052 13.6615 -158.603 -44.8174 0 -4.77083e-015 18.2434 4.2839 -10.8038 90 3.63986e-020 -6.36111e-015 -42.3617 -17.4243 157.973 -38.1654 -1.59028e-015 3.18056e-015 12.5195 -3.36586 11.9312 90 0 3.18055e-015 
588.91 83.0668 -88.4548 108.409 30.1442 -12.0665 0.344035 1.66013 -1.56527 0.733788 3.31068 -3.14229 0.733789 3.31068 -3.1423 -8.30907e-012 -9.0191e-006 -5.27751e-005 -7.93116 12.1749 -4.33661 -178.997 -3.4893 -73.9457 -0.61464 -2.57736 47.9123 -116.314 0 -9.54166e-015 -60.0093 -48.4178 -51.602 -178.181 5.59876 71.9721 -19.0324 -4.65153 -69.867 -101.502 0 6.36111e-015 -39.5823 52.3498 32.719 -42.3453 14.395 -159.008 -42.0302 0 2.38542e-015 17.429 3.93551 -10.2669 90 0 -0 -39.5477 -16.9346 159.783 -35.6415 1.59028e-015 -0 10.7691 -4.99445 14.0903 90 4.96962e-017 -0 
589.032 83.8189 -87.7583 107.846 29.6282 -11.9905 0.231713 1.63522 -1.45343 0.50517 3.26449 -2.91508 0.505171 3.26449 -2.91509 -8.3043e-012 -9.0191e-006 -5.27751e-005 -7.45748 12.2159 -4.0354 -178.998 -3.53871 -74.178 -1.05708 -2.10539 48.2538 -116.578 6.36111e-015 -1.90833e-014 -59.4772 -48.1383 -50.8641 -178.116 5.79293 71.9477 -19.8851 -4.8988 -69.14 -102.048 -1.59028e-015 -9.54166e-015 -39.5045 53.2454 32.9923 -40.4807 15.1774 -159.363 -39.722 -6.36111e-015 -2.38542e-015 16.7571 3.70096 -9.85451 90 -7.27971e-020 6.36111e-015 -37.7708 -17.0071 160.842 -35.5899 0 3.18056e-015 10.2936 -5.50768 13.8152 90 0 -0 
589.087 84.3166 -87.2396 107.221 29.3401 -11.7541 0.135243 1.59104 -1.33914 0.307839 3.17894 -2.68341 0.307839 3.17894 -2.68342 -8.3043e-012 -9.0191e-006 -5.27751e-005 -6.97646 11.5744 -3.43127 -179.014 -3.5315 -74.3888 -1.64662 -1.70793 48.6507 -116.745 -3.18055e-015 9.54166e-015 -58.3899 -48.2363 -49.4051 -178.068 5.91542 71.8788 -19.7926 -5.00486 -68.369 -102.71 0 3.18055e-015 -39.3952 53.6317 33.0114 -38.765 15.5437 -159.773 -38.0445 -3.18055e-015 2.38542e-015 16.3254 3.37038 -9.6386 90 0 3.18055e-015 -37.2071 -17.7851 160.764 -37.5676 -7.95139e-016 -0 9.67413 -5.04408 13.64 90 5.96354e-016 1.59028e-015 
